<svg width="31" height="25" viewBox="0 0 31 25" fill="none" xmlns="http://www.w3.org/2000/svg">
<path d="M26.1555 4.55175H4.82878L4.5118 1.0202C4.46012 0.442709 3.97586 0 3.39623 0H1.12036C0.501311 0 0 0.501311 0 1.12036C0 1.7394 0.501311 2.24071 1.12036 2.24071H2.3723C3.05634 9.86266 1.28817 -9.83709 3.66047 16.5944C3.7521 17.629 4.31095 18.7515 5.27362 19.5144C3.53741 21.7316 5.12392 25 7.94798 25C10.2921 25 11.9451 22.6623 11.1412 20.4482H17.272C16.4692 22.6597 18.1191 25 20.4653 25C22.3379 25 23.8615 23.4764 23.8615 21.6038C23.8615 19.7312 22.3379 18.2075 20.4653 18.2075H7.95544C7.10465 18.2075 6.36307 17.694 6.0429 16.946L23.9452 15.8938C24.4337 15.8651 24.8476 15.5225 24.9664 15.0473L27.2423 5.94327C27.4192 5.23792 26.8848 4.55175 26.1555 4.55175ZM7.94798 22.7598C7.31082 22.7598 6.79247 22.2415 6.79247 21.6043C6.79247 20.9671 7.31082 20.4488 7.94798 20.4488C8.58514 20.4488 9.1035 20.9671 9.1035 21.6043C9.1035 22.2415 8.58514 22.7598 7.94798 22.7598ZM20.4658 22.7598C19.8287 22.7598 19.3103 22.2415 19.3103 21.6043C19.3103 20.9671 19.8287 20.4488 20.4658 20.4488C21.103 20.4488 21.6213 20.9671 21.6213 21.6043C21.6213 22.2415 21.103 22.7598 20.4658 22.7598ZM22.9926 13.7059L5.74136 14.7197L5.03015 6.79193H24.7214L22.9926 13.7059Z" fill="#FF8D06"/>
<circle cx="27" cy="4" r="4" fill="#00284F"/>
</svg>
