<svg width="198" height="32" viewBox="0 0 198 32" fill="none" xmlns="http://www.w3.org/2000/svg">
<g clip-path="url(#clip0_1_138)">
<path d="M3.08328 25.7945V5.20649C3.08328 4.54492 3.08328 4.04213 3.0435 3.77089C3.00413 3.48067 2.91674 3.19898 2.7849 2.93732C2.55283 2.36837 1.96933 2.07066 1.02776 2.03759C0.364692 2.03759 0 1.75311 0 1.27017C0 0.787222 0.351429 0.608599 1.06755 0.608599H10.629C12.7271 0.584748 14.8168 0.874646 16.8288 1.46864C18.5679 1.97253 20.1964 2.79841 21.6294 3.9032C22.9235 4.92205 23.9839 6.20561 24.7392 7.66752C25.4884 9.15248 25.8704 10.7949 25.8532 12.4573C25.8532 15.5446 24.737 17.9196 22.5047 19.5823C20.2723 21.2451 17.1139 22.0787 13.0294 22.0831C12.3707 22.0831 11.7076 22.0632 11.0401 22.0235C10.3771 21.9772 9.80684 21.9111 9.32279 21.8317C9.01115 21.7721 8.71939 21.7258 8.44753 21.6993C8.17567 21.6729 7.98339 21.6597 7.86404 21.6597C7.37999 21.6597 7.13465 21.9309 7.13465 22.4668V26.7471C7.13465 27.4087 7.13466 27.9115 7.18107 28.1827C7.20863 28.4549 7.28029 28.7207 7.39325 28.97C7.52297 29.2659 7.75974 29.5021 8.05632 29.6316C8.43587 29.7753 8.83268 29.8687 9.23659 29.9094C9.89966 29.9094 10.2246 30.1939 10.2246 30.6768C10.2246 31.1598 9.86652 31.3384 9.1504 31.3384H1.02776C0.364692 31.3384 0 31.1135 0 30.6768C0 30.2402 0.324903 29.9359 0.981344 29.9094C1.37946 29.8726 1.77022 29.779 2.14172 29.6316C2.43612 29.499 2.6719 29.2637 2.80479 28.97C2.9445 28.7425 3.03275 28.4874 3.06339 28.2224C3.06339 27.9512 3.10317 27.4616 3.10317 26.7471L3.08328 25.7945ZM10.2047 2.18312C9.37895 2.10786 8.54839 2.26124 7.80435 2.62638C7.56954 2.81901 7.38612 3.0666 7.27043 3.34708C7.15474 3.62757 7.11037 3.93225 7.14128 4.23398V17.7763C7.12569 18.1805 7.22436 18.581 7.42603 18.9319C7.6277 19.2829 7.92424 19.5702 8.28177 19.761C9.44645 20.2742 10.7176 20.5011 11.9883 20.4225C13.2158 20.451 14.4418 20.3198 15.6352 20.0322C16.5811 19.7771 17.4683 19.3412 18.2477 18.7488C20.3121 17.2139 21.3421 14.9756 21.3377 12.0339C21.3591 10.6348 21.0951 9.24607 20.5619 7.95199C20.0672 6.76113 19.305 5.69959 18.3339 4.84925C17.3055 3.96246 16.111 3.28789 14.8197 2.86455C13.3294 2.38552 11.7701 2.15528 10.2047 2.18312Z" fill="#00284F"/>
<path d="M30.74 23.3996C30.3952 23.5121 30.2228 23.6378 30.2228 23.7833C30.2881 24.2608 30.4338 24.7238 30.6538 25.1528C31.2924 26.626 32.3132 27.9026 33.6111 28.8509C34.807 29.7191 36.2499 30.1828 37.7288 30.1741C38.769 30.1703 39.7944 29.9281 40.7259 29.4662C41.7197 28.9805 42.6093 28.3064 43.345 27.4815C43.4354 27.3554 43.5533 27.2513 43.6898 27.1772C43.782 27.1277 43.8837 27.0983 43.9882 27.0912C44.3595 27.0912 44.5452 27.2963 44.5452 27.6932C44.5298 27.9072 44.4565 28.113 44.333 28.2886C43.4424 29.4787 42.2499 30.4104 40.8784 30.9878C39.4297 31.6386 37.8588 31.9746 36.27 31.9735C34.8579 31.9878 33.4575 31.7178 32.1523 31.1797C30.9253 30.6763 29.8136 29.9294 28.8847 28.9844C27.9557 28.0393 27.2289 26.9158 26.7483 25.6821C25.751 23.068 25.7228 20.1844 26.6687 17.5514C27.0882 16.3826 27.7349 15.3079 28.5718 14.3891C29.3931 13.5014 30.3853 12.7882 31.4893 12.2919C32.6412 11.7734 33.8924 11.5116 35.1561 11.5245C36.5414 11.5099 37.9087 11.8396 39.1345 12.4838C40.3889 13.1596 41.4797 14.1013 42.3305 15.2425C42.9288 16.0301 43.4443 16.8769 43.8688 17.7697C44.0428 18.1306 44.1463 18.5213 44.1739 18.9208C44.179 19.0379 44.1435 19.153 44.0735 19.247C44.0034 19.341 43.9031 19.4081 43.7893 19.4369L30.74 23.3996ZM30.0106 22.0302C30.1466 22.0128 30.2774 21.9678 30.3952 21.8979L39.7445 19.1656C40.0827 19.0796 40.2551 18.9208 40.2551 18.6959C40.2409 18.471 40.1985 18.2488 40.1291 18.0343C40.0429 17.7366 39.9302 17.3728 39.7843 17.0287C39.4424 16.1356 38.9003 15.3323 38.1996 14.6802C37.6964 14.1845 37.0999 13.7931 36.4444 13.5285C35.7889 13.264 35.0873 13.1315 34.3803 13.1387C33.6898 13.1175 33.005 13.2686 32.3879 13.5782C31.7707 13.8878 31.2408 14.3461 30.8461 14.9117C29.8936 16.3466 29.4287 18.049 29.5199 19.7676C29.5098 20.3129 29.552 20.8579 29.6459 21.3951C29.752 21.8185 29.8979 22.0302 30.0106 22.0302Z" fill="#00284F"/>
<path d="M51.7065 12.4837L51.7463 15.6063C51.7463 15.8048 51.7463 15.904 51.8325 15.904C51.9965 15.7371 52.139 15.5504 52.2568 15.3483C52.5545 14.8181 52.92 14.3289 53.3443 13.8929C53.7802 13.4389 54.2675 13.0371 54.7964 12.6954C55.3041 12.3635 55.8494 12.0926 56.4209 11.8883C56.968 11.6935 57.5442 11.5928 58.125 11.5906C58.6169 11.5889 59.1063 11.6603 59.5772 11.8023C60.0132 11.9378 60.4317 12.1243 60.8237 12.358C61.0227 12.444 61.1221 12.5499 61.1221 12.6623C61.1241 12.8007 61.0797 12.9357 60.9961 13.0461C60.711 13.7076 60.459 14.3692 60.2469 14.9911C60.0843 15.4463 59.9471 15.9101 59.8357 16.3804C59.8179 16.6359 59.7283 16.8812 59.5772 17.0882C59.5174 17.1525 59.4443 17.2029 59.363 17.2361C59.2817 17.2692 59.1941 17.2842 59.1064 17.2801C58.7947 17.2801 58.6223 16.9956 58.5958 16.4267C58.5916 16.1469 58.5313 15.8709 58.4182 15.6149C58.3052 15.3589 58.1418 15.1282 57.9378 14.9363C57.7338 14.7444 57.4932 14.5954 57.2303 14.498C56.9675 14.4006 56.6878 14.3568 56.4077 14.3692C55.7656 14.3665 55.1327 14.5209 54.5643 14.8191C53.9885 15.1241 53.4844 15.5481 53.0857 16.0628C52.6557 16.6165 52.3218 17.2382 52.0977 17.902C51.8501 18.6236 51.7268 19.3819 51.733 20.1447V27.5873C51.6686 28.215 51.8283 28.8452 52.1839 29.3669C52.6749 29.7768 53.2827 30.0221 53.9212 30.0682C54.4914 30.1542 54.7765 30.3857 54.7765 30.7297C54.7765 31.0737 54.4781 31.3252 53.8747 31.3252H46.1765C45.5465 31.3252 45.2283 31.1135 45.2283 30.6636C45.2283 30.3527 45.5333 30.141 46.1301 30.002C46.501 29.9566 46.863 29.8563 47.2042 29.7043C47.4841 29.6031 47.719 29.4062 47.8673 29.1486C48.1022 28.6403 48.1917 28.077 48.1259 27.5212V18.2658C48.1669 17.6908 48.0855 17.1136 47.8872 16.5722C47.7872 16.4094 47.653 16.2701 47.4939 16.1639C47.3348 16.0576 47.1545 15.9871 46.9655 15.957L46.6207 15.8709C46.4641 15.8486 46.3206 15.7712 46.2162 15.6526C46.1185 15.5486 46.064 15.4115 46.0637 15.2689C46.0681 15.1544 46.1021 15.043 46.1626 14.9456C46.223 14.8482 46.3078 14.7681 46.4085 14.7132L50.9174 11.8883C50.9899 11.8286 51.0821 11.7979 51.176 11.8023C51.4943 11.8222 51.6733 12.0339 51.7065 12.4837Z" fill="#00284F"/>
<path d="M66.7979 0.767367V27.6998C66.7926 28.0296 66.8148 28.3593 66.8643 28.6855C66.8968 28.8753 66.9478 29.0614 67.0168 29.2412C67.1833 29.4985 67.4107 29.711 67.679 29.8598C67.9473 30.0087 68.2482 30.0893 68.5551 30.0946C69.1585 30.1806 69.4569 30.4122 69.4569 30.7562C69.4569 31.1002 69.132 31.3516 68.4755 31.3516H61.5265C60.8966 31.3516 60.585 31.1399 60.585 30.69C60.585 30.2402 60.8834 30.1343 61.4868 30.0285C61.7819 29.9519 62.0685 29.8455 62.3421 29.7109C62.584 29.6016 62.7808 29.4123 62.8991 29.1751C63.1356 28.6532 63.2251 28.0767 63.1577 27.5079V6.1393C63.1624 5.95951 63.1468 5.77976 63.1113 5.60343C63.0993 5.27649 62.9769 4.96318 62.7638 4.71453C62.5507 4.46588 62.2595 4.29651 61.9376 4.23398L61.6459 4.14797C61.5698 4.14546 61.495 4.12778 61.4259 4.09597C61.3568 4.06415 61.2948 4.01885 61.2435 3.96275C61.1922 3.90664 61.1527 3.84085 61.1272 3.76927C61.1018 3.69769 61.0911 3.62176 61.0955 3.54596C61.1088 3.42804 61.1516 3.31534 61.22 3.21823C61.2883 3.12113 61.3801 3.04272 61.4868 2.99023L66.0288 0.17196C66.056 0.143436 66.089 0.121021 66.1256 0.106193C66.1622 0.0913658 66.2015 0.0844618 66.241 0.0859535C66.5592 0.0859535 66.7449 0.310886 66.7979 0.767367Z" fill="#00284F"/>
<path d="M83.0365 20.3167L82.5657 17.1544C82.471 16.0163 82.0052 14.9404 81.2396 14.0914C80.4161 13.4158 79.3661 13.0777 78.3022 13.1453C77.3859 13.161 76.4828 13.366 75.6499 13.7474C74.7454 14.1467 73.9346 14.7304 73.2695 15.4608C72.9313 15.7982 72.6594 15.9702 72.4539 15.9702C72.3782 15.9814 72.3009 15.9747 72.2282 15.9507C72.1555 15.9267 72.0895 15.8861 72.0354 15.8321C71.9812 15.7781 71.9405 15.7122 71.9165 15.6397C71.8924 15.5672 71.8857 15.4901 71.8969 15.4145C71.9119 15.2907 71.9575 15.1725 72.0295 15.0705C72.1157 14.9316 72.2019 14.7993 72.2881 14.6868C73.1584 13.6771 74.2496 12.8803 75.4775 12.3581C76.7316 11.8088 78.0863 11.525 79.4559 11.5245C81.1657 11.4305 82.8533 11.9464 84.2168 12.98C85.4527 14.0785 86.2193 15.6081 86.3585 17.2537L87.7112 27.0383C87.7684 27.8666 87.994 28.6747 88.3742 29.4133C88.4885 29.634 88.6603 29.8198 88.8715 29.9514C89.0827 30.0829 89.3255 30.1553 89.5744 30.1609C89.8064 30.1671 90.0357 30.1099 90.2375 29.9955C90.4065 29.9106 90.5436 29.7738 90.6287 29.6051L90.8409 29.1817C90.8409 29.0957 90.9271 29.0494 91.0995 29.0494C91.2719 29.0494 91.4841 29.2479 91.4841 29.6515C91.4745 29.9851 91.3808 30.311 91.2116 30.5989C91.0424 30.8868 90.8032 31.1275 90.516 31.2988C89.8102 31.7596 88.9785 31.9907 88.1355 31.9603C86.4778 31.9603 85.3352 31.3473 84.7075 30.1212C84.5682 29.8102 84.4489 29.6515 84.3627 29.6515L84.1969 29.7374C82.4464 31.1738 80.2436 31.9471 77.9773 31.9206C76.9249 31.9309 75.879 31.7562 74.8874 31.4046C73.9935 31.0868 73.1662 30.6068 72.4473 29.9888C71.7627 29.3902 71.2077 28.6586 70.8161 27.8387C70.4195 27.0129 70.2155 26.1082 70.2193 25.1925C70.2144 24.3274 70.4191 23.474 70.8161 22.705C71.2192 21.9341 71.782 21.2576 72.4672 20.7203C73.2154 20.1427 74.0561 19.6954 74.9537 19.3972C75.9552 19.0597 77.0064 18.892 78.0635 18.901C78.5064 18.9 78.949 18.922 79.3896 18.9671C79.7683 19.011 80.1415 19.093 80.5036 19.2119C80.8616 19.331 81.2462 19.4765 81.664 19.6552C82.1334 19.8502 82.5916 20.0711 83.0365 20.3167ZM83.9383 26.3767L83.2752 22.189C82.672 21.5655 81.9654 21.0507 81.1865 20.6674C80.4515 20.3356 79.6526 20.1685 78.8459 20.1778C78.1887 20.1562 77.5338 20.2663 76.9199 20.5015C76.3061 20.7367 75.7457 21.0923 75.2719 21.5473C74.8003 21.9986 74.4295 22.5443 74.1838 23.1485C73.9382 23.7527 73.8232 24.4019 73.8463 25.0536C73.8417 25.7666 73.9815 26.4731 74.2574 27.1309C74.5218 27.7631 74.9094 28.3365 75.3979 28.8179C75.8811 29.2966 76.4502 29.6803 77.0755 29.9492C77.7295 30.2264 78.4337 30.366 79.1443 30.3593C79.7768 30.3636 80.4065 30.2767 81.0141 30.1013C81.5612 29.9583 82.084 29.7354 82.5657 29.4398C82.9881 29.179 83.348 28.829 83.62 28.4143C83.869 28.049 84.005 27.6189 84.0112 27.1772C84.0187 27.0494 84.0187 26.9213 84.0112 26.7935C83.9847 26.6612 83.9648 26.5355 83.9383 26.3767Z" fill="#00284F"/>
<path d="M101.914 25.7481V5.13372C101.978 4.29873 101.863 3.4598 101.576 2.67269C101.433 2.45263 101.236 2.27232 101.004 2.14855C100.772 2.02478 100.513 1.96157 100.25 1.96482C99.9639 1.96931 99.682 1.89613 99.4344 1.75311C99.358 1.68343 99.299 1.59688 99.2622 1.50038C99.2253 1.40388 99.2116 1.30012 99.2222 1.19739C99.2222 0.740913 99.5802 0.535828 100.296 0.535828H107.477C108.194 0.535828 108.552 0.767376 108.552 1.19739C108.563 1.29786 108.549 1.39962 108.511 1.49328C108.473 1.58694 108.411 1.66947 108.333 1.73326C108.096 1.86494 107.834 1.94394 107.564 1.96482C107.276 1.98194 106.994 2.04678 106.728 2.15666C106.509 2.25903 106.333 2.43457 106.231 2.65284C106.099 2.94999 106.02 3.26797 105.999 3.59226C105.949 4.08903 105.927 4.58819 105.932 5.08741V12.1926C105.881 12.6249 105.997 13.0603 106.257 13.4099C106.61 13.6645 107.045 13.7778 107.477 13.7275H122.138C122.578 13.7732 123.02 13.6606 123.385 13.4099C123.667 13.0304 123.791 12.5558 123.729 12.0868V5.08741C123.794 4.26051 123.676 3.42953 123.385 2.65284C123.235 2.44262 123.035 2.27236 122.804 2.157C122.573 2.04164 122.317 1.98473 122.058 1.99127C121.395 1.99127 121.031 1.7068 121.031 1.22385C121.031 0.740909 121.389 0.562286 122.105 0.562286H129.438C130.148 0.562286 130.506 0.793834 130.506 1.22385C130.506 1.65387 130.181 1.96481 129.518 1.99127C129.206 1.97073 128.895 2.04593 128.627 2.20677C128.359 2.3676 128.147 2.60637 128.019 2.891C127.906 3.14817 127.841 3.42401 127.827 3.70473C127.827 3.9892 127.827 4.47215 127.827 5.16018V26.6744C127.827 27.4153 127.827 27.9115 127.867 28.1496C127.903 28.4184 127.961 28.6839 128.039 28.9435C128.14 29.2171 128.329 29.4496 128.576 29.6051C128.868 29.74 129.179 29.8271 129.498 29.8631C130.161 29.8631 130.486 30.1476 130.486 30.6305C130.486 31.1135 130.141 31.2921 129.458 31.2921H122.065C121.356 31.2921 120.997 31.0605 120.997 30.6305C120.997 30.2005 121.336 29.8896 122.025 29.8631C122.287 29.8616 122.545 29.7964 122.776 29.673C123.007 29.5497 123.205 29.3719 123.351 29.1552C123.658 28.3729 123.782 27.5315 123.716 26.6942V17.2404C123.774 16.7961 123.665 16.3462 123.411 15.9768C123.026 15.7412 122.573 15.6432 122.125 15.6989H107.477C107.048 15.652 106.616 15.7574 106.257 15.9966C105.997 16.3559 105.883 16.8005 105.939 17.2404V27.5476C105.939 27.7814 105.939 27.9732 105.939 28.1232C105.939 28.282 105.939 28.4143 105.979 28.5334C105.996 28.6508 106.032 28.7647 106.085 28.8707C106.183 29.1579 106.371 29.4056 106.622 29.5763C106.874 29.747 107.174 29.8314 107.477 29.8168C107.762 29.8364 108.04 29.9152 108.293 30.0483C108.37 30.1136 108.429 30.1965 108.466 30.29C108.503 30.3834 108.516 30.4844 108.505 30.5842C108.505 31.0407 108.147 31.2458 107.431 31.2458H100.184C99.5206 31.2458 99.1492 31.0142 99.1492 30.5842C99.137 30.4825 99.1486 30.3794 99.1832 30.283C99.2177 30.1866 99.2742 30.0994 99.3482 30.0285C99.5844 29.8815 99.859 29.8079 100.137 29.8168C100.405 29.8257 100.672 29.7702 100.914 29.6551C101.156 29.54 101.368 29.3686 101.53 29.1552C101.833 28.4651 101.959 27.7099 101.894 26.9588V25.7548L101.914 25.7481Z" fill="#00284F"/>
<path d="M135.399 23.3137C135.061 23.4262 134.889 23.5585 134.889 23.6974C134.956 24.171 135.104 24.6297 135.326 25.0536C135.967 26.5255 136.988 27.8015 138.284 28.7518C139.48 29.6199 140.923 30.0836 142.401 30.0749C143.444 30.0705 144.471 29.8283 145.405 29.367C146.397 28.881 147.284 28.2069 148.018 27.3823C148.11 27.2576 148.227 27.1539 148.362 27.078C148.455 27.0285 148.556 26.9992 148.661 26.992C149.032 26.992 149.218 27.1971 149.218 27.594C149.202 27.808 149.129 28.0138 149.006 28.1894C148.116 29.3809 146.924 30.3129 145.551 30.8886C144.103 31.5402 142.532 31.8763 140.943 31.8744C139.533 31.8892 138.134 31.6191 136.832 31.0805C135.603 30.5798 134.49 29.8338 133.561 28.8885C132.631 27.9431 131.905 26.8182 131.428 25.5829C130.423 22.9705 130.393 20.0852 131.341 17.4522C131.766 16.2842 132.414 15.21 133.251 14.2899C134.07 13.4024 135.06 12.6891 136.162 12.1927C137.315 11.6779 138.566 11.4161 139.829 11.4253C141.214 11.4099 142.582 11.7396 143.807 12.3846C145.063 13.0587 146.154 14.0006 147.003 15.1433C147.602 15.9316 148.12 16.7783 148.548 17.6705C148.717 18.0327 148.819 18.4229 148.847 18.8216C148.853 18.9389 148.818 19.0547 148.748 19.149C148.677 19.2433 148.576 19.31 148.462 19.3377L135.399 23.3137ZM134.663 21.9442C134.801 21.9272 134.935 21.8822 135.055 21.8119L144.404 19.0995C144.749 19.0135 144.921 18.8547 144.921 18.6298C144.904 18.4047 144.859 18.1826 144.789 17.9682C144.702 17.6705 144.59 17.3067 144.45 16.9626C144.109 16.0678 143.564 15.2639 142.859 14.6141C142.356 14.1198 141.761 13.7292 141.106 13.4647C140.452 13.2002 139.752 13.067 139.046 13.0726C138.355 13.0521 137.67 13.2034 137.051 13.5129C136.433 13.8224 135.902 14.2804 135.506 14.8456C134.556 16.2819 134.091 17.9832 134.179 19.7015C134.171 20.247 134.215 20.7921 134.312 21.329C134.418 21.7458 134.531 21.9442 134.663 21.9442Z" fill="#00284F"/>
<path d="M155.079 0.681433V27.5874C155.071 27.9173 155.093 28.2473 155.146 28.5731C155.176 28.7626 155.225 28.9487 155.292 29.1288C155.461 29.3855 155.69 29.5977 155.959 29.7474C156.228 29.8971 156.529 29.9799 156.837 29.9888C157.44 30.0748 157.738 30.2998 157.738 30.6504C157.738 31.001 157.407 31.2524 156.75 31.2524H149.808C149.178 31.2524 148.866 31.0341 148.866 30.5909C148.866 30.1476 149.165 30.0418 149.762 29.9293C150.06 29.8517 150.348 29.743 150.624 29.6051C150.863 29.4919 151.058 29.3038 151.181 29.0693C151.417 28.5474 151.507 27.971 151.439 27.4021V6.05335C151.44 5.87369 151.425 5.69431 151.393 5.51749C151.38 5.19089 151.257 4.8782 151.044 4.62978C150.831 4.38136 150.54 4.21166 150.219 4.14804L149.927 4.06204C149.852 4.06039 149.777 4.04352 149.708 4.01242C149.639 3.98133 149.577 3.93665 149.525 3.88106C149.474 3.82548 149.434 3.76013 149.409 3.68892C149.383 3.61771 149.373 3.5421 149.377 3.46662C149.389 3.34837 149.431 3.23501 149.498 3.13682C149.565 3.03863 149.656 2.95871 149.762 2.9043L154.31 0.0860162C154.337 0.0571424 154.37 0.0344877 154.407 0.0196334C154.443 0.00477914 154.483 -0.00190994 154.522 1.93878e-05C154.834 1.93878e-05 155.02 0.224951 155.079 0.681433Z" fill="#00284F"/>
<path d="M164.767 21.7457L162.625 21.018C159.973 20.1359 158.658 18.6672 158.68 16.6119C158.681 15.923 158.843 15.2438 159.151 14.6272C159.46 14.0065 159.899 13.4585 160.437 13.0196C161.013 12.5607 161.667 12.2069 162.366 11.9743C163.155 11.7102 163.982 11.5805 164.813 11.5906C165.123 11.5906 165.394 11.5906 165.629 11.5906C165.865 11.6038 166.1 11.6325 166.332 11.6766C166.608 11.709 166.883 11.7576 167.154 11.8222L168.334 12.1662L168.911 12.3382C169.002 12.363 169.095 12.3763 169.189 12.3779C169.395 12.3779 169.594 12.1927 169.793 11.8222C169.855 11.6719 169.943 11.5333 170.051 11.412C170.143 11.3635 170.247 11.3428 170.35 11.3525C170.493 11.3433 170.634 11.3804 170.754 11.4583C170.925 11.6241 171.064 11.819 171.165 12.0339L173.48 16.2282L173.632 16.5259C173.667 16.5937 173.687 16.6681 173.692 16.7442C173.692 17.0287 173.539 17.1676 173.221 17.1676C173.032 17.1715 172.845 17.121 172.684 17.0221C172.467 16.8539 172.273 16.6582 172.107 16.4399C171.204 15.3664 170.097 14.4807 168.851 13.8334C167.749 13.2192 166.513 12.881 165.251 12.8476C164.411 12.8245 163.588 13.0805 162.91 13.5753C162.615 13.7741 162.373 14.0421 162.205 14.3558C162.038 14.6695 161.95 15.0193 161.949 15.3748C161.943 15.7004 162.016 16.0225 162.161 16.3142C162.335 16.6331 162.585 16.9036 162.89 17.1015C163.329 17.3976 163.795 17.6502 164.283 17.8557C164.866 18.1071 165.609 18.3982 166.451 18.7091L168.977 19.6088C171.325 20.438 172.989 21.3201 173.97 22.2551C174.46 22.7191 174.845 23.2818 175.1 23.9057C175.355 24.5297 175.474 25.2005 175.449 25.8739C175.457 26.6978 175.29 27.5142 174.958 28.2687C174.639 28.9976 174.164 29.6479 173.566 30.1741C172.942 30.7147 172.222 31.1343 171.444 31.4112C170.593 31.7142 169.695 31.8665 168.792 31.8611C167.368 31.8226 165.955 31.6003 164.588 31.1995L163.838 31.0076C163.786 31.0108 163.734 30.9943 163.693 30.9613C163.659 30.9385 163.62 30.9248 163.58 30.9216C163.381 30.9216 163.156 31.1201 162.917 31.517C162.853 31.6577 162.757 31.7821 162.638 31.8809C162.538 31.9325 162.426 31.9554 162.313 31.9471C162.171 31.9562 162.029 31.9191 161.909 31.8412C161.735 31.684 161.583 31.5037 161.458 31.3053L158.03 26.2576C157.82 26.0515 157.685 25.7815 157.645 25.4902C157.634 25.4146 157.641 25.3375 157.665 25.265C157.689 25.1925 157.73 25.1266 157.784 25.0726C157.838 25.0186 157.904 24.978 157.977 24.954C158.049 24.93 158.127 24.9233 158.202 24.9345C158.454 24.9345 158.773 25.1726 159.144 25.6622C159.585 26.1433 160.066 26.5859 160.583 26.9853C161.339 27.616 162.145 28.2423 163.003 28.8642C163.726 29.4124 164.538 29.833 165.403 30.1079C166.246 30.3862 167.128 30.5313 168.016 30.5379C169.037 30.591 170.038 30.2444 170.807 29.572C171.143 29.2436 171.404 28.8479 171.574 28.4111C171.745 27.9743 171.82 27.5063 171.795 27.0382C171.818 26.5956 171.75 26.153 171.595 25.7376C171.44 25.3223 171.201 24.9431 170.894 24.6235C170.675 24.3969 170.43 24.197 170.164 24.0281C169.821 23.8125 169.464 23.6181 169.097 23.4459C168.666 23.2475 168.148 23.0358 167.552 22.7844L164.767 21.7457Z" fill="#00284F"/>
<path d="M189.553 20.2307L189.082 17.0684C188.982 15.9315 188.517 14.857 187.756 14.0054C186.922 13.3357 185.865 13.0069 184.798 13.0858C183.882 13.1003 182.979 13.3053 182.146 13.6878C181.242 14.0879 180.431 14.6714 179.766 15.4013C179.421 15.7387 179.149 15.9107 178.95 15.9107C178.874 15.9218 178.797 15.9151 178.724 15.8912C178.652 15.8672 178.586 15.8265 178.531 15.7725C178.477 15.7185 178.437 15.6527 178.413 15.5802C178.389 15.5076 178.382 15.4305 178.393 15.355C178.408 15.2322 178.451 15.1146 178.519 15.011C178.605 14.872 178.691 14.7463 178.778 14.6273C179.652 13.6188 180.745 12.8224 181.974 12.2985C183.238 11.7442 184.604 11.4603 185.985 11.465C187.693 11.3714 189.378 11.8874 190.739 12.9204C191.98 14.0161 192.749 15.5468 192.888 17.1941L194.26 26.9523C194.318 27.7784 194.544 28.5841 194.923 29.3207C195.037 29.5426 195.208 29.7298 195.419 29.8626C195.631 29.9953 195.874 30.0687 196.124 30.0749C196.356 30.0787 196.585 30.0192 196.787 29.9028C196.956 29.8201 197.091 29.6824 197.171 29.5125L197.39 29.0891C197.39 29.0031 197.476 28.9568 197.642 28.9568C197.808 28.9568 198.033 29.1619 198.033 29.5588C198.024 29.8925 197.93 30.2183 197.761 30.5063C197.592 30.7942 197.352 31.0349 197.065 31.2061C196.359 31.6662 195.528 31.8972 194.685 31.8677C193.027 31.8677 191.884 31.2546 191.257 30.0285C191.111 29.7176 190.998 29.5588 190.912 29.5588L190.739 29.6448C188.992 31.0823 186.791 31.8557 184.526 31.828C183.474 31.8388 182.428 31.6641 181.437 31.312C180.543 30.9941 179.715 30.5142 178.996 29.8962C178.31 29.2989 177.755 28.567 177.365 27.7461C176.963 26.9222 176.756 26.0165 176.762 25.0999C176.756 24.2339 176.963 23.3798 177.365 22.6124C177.768 21.8413 178.331 21.1647 179.016 20.6277C179.763 20.0475 180.604 19.5999 181.503 19.3045C182.504 18.9666 183.555 18.7989 184.613 18.8084C185.056 18.8073 185.498 18.8294 185.939 18.8745C186.317 18.9184 186.691 19.0004 187.053 19.1193C187.411 19.2384 187.795 19.3839 188.213 19.5626C188.671 19.7608 189.119 19.9839 189.553 20.2307ZM190.454 26.3039L189.791 22.1162C189.188 21.4927 188.481 20.978 187.703 20.5946C186.965 20.2621 186.164 20.095 185.355 20.105C184.698 20.0849 184.044 20.1957 183.43 20.4308C182.816 20.6659 182.256 21.0207 181.781 21.4745C181.311 21.9264 180.941 22.4723 180.697 23.0765C180.452 23.6807 180.338 24.3296 180.362 24.9808C180.357 25.6797 180.491 26.3728 180.757 27.0192C181.024 27.6656 181.417 28.2524 181.914 28.7451C182.394 29.2273 182.964 29.6116 183.591 29.8764C184.245 30.1536 184.95 30.2933 185.66 30.2866C186.293 30.29 186.922 30.2031 187.53 30.0285C188.076 29.8824 188.599 29.6597 189.082 29.367C189.504 29.1038 189.864 28.7516 190.136 28.3349C190.383 27.9693 190.517 27.5389 190.521 27.0978C190.528 26.97 190.528 26.8419 190.521 26.7141C190.501 26.5818 190.481 26.4495 190.454 26.3039Z" fill="#00284F"/>
</g>
<defs>
<clipPath id="clip0_1_138">
<rect width="198" height="32" fill="white"/>
</clipPath>
</defs>
</svg>
